#define allfiles_width 12
#define allfiles_height 12
static unsigned char allfiles_bits[] = {
  0xff, 0x0f, 0x01, 0x08, 0x61, 0x08, 0x69, 0x09, 0xf1, 0x08, 0xfd, 0x0b,
  0xfd, 0x0b, 0xf1, 0x08, 0x69, 0x09, 0x61, 0x08, 0x01, 0x08, 0xff, 0x0f,
  };
