#define new_width 12
#define new_height 12
static unsigned char new_bits[] = {
  0x1c, 0x00, 0x36, 0x00, 0xe3, 0x0f, 0x01, 0x08, 0x31, 0x08, 0x31, 0x08,
  0xfd, 0x08, 0xfd, 0x08, 0x31, 0x08, 0x31, 0x08, 0x01, 0x08, 0xff, 0x0f,
  };
