#define arrow_icon_width 12
#define arrow_icon_height 12
static unsigned char arrow_icon_bits[] = {
  0x00, 0x00, 0x00, 0x00, 0x08, 0x02, 0x1c, 0x02, 0x3e, 0x02, 0x6b, 0x02,
  0x49, 0x02, 0x08, 0x02, 0x08, 0x02, 0x08, 0x02, 0x08, 0x02, 0x08, 0x02,
  };
