#define delete_icon_width 12
#define delete_icon_height 12
static unsigned char delete_icon_bits[] = {
  0x01, 0x08, 0x03, 0x0c, 0x06, 0x06, 0x6c, 0x03, 0x98, 0x01, 0xf0, 0x01,
  0x68, 0x01, 0xf4, 0x02, 0xfa, 0x01, 0x1c, 0x03, 0x0e, 0x06, 0x03, 0x0c,
  };
