#define directory_icon_width 12
#define directory_icon_height 12
static unsigned char directory_icon_bits[] = {
  0x1c, 0x00, 0x36, 0x00, 0xe3, 0x0f, 0x01, 0x08, 0x01, 0x08, 0x01, 0x08,
  0x01, 0x08, 0x01, 0x08, 0x01, 0x08, 0x01, 0x08, 0x01, 0x08, 0xff, 0x0f,
  };
