#define edit_icon_width 12
#define edit_icon_height 12
static unsigned char edit_icon_bits[] = {
  0x04, 0x00, 0x06, 0x00, 0xbf, 0x00, 0xff, 0x00, 0xc6, 0x00, 0xa4, 0x00,
  0x90, 0x00, 0x10, 0x01, 0x08, 0x01, 0x04, 0x01, 0x04, 0x01, 0x02, 0x01,
  };
