#define ellipse_icon_width 12
#define ellipse_icon_height 12
static unsigned char ellipse_icon_bits[] = {
  0x00, 0x00, 0x00, 0x00, 0x00, 0x00, 0x00, 0x00, 0xf8, 0x01, 0x04, 0x02,
  0x02, 0x04, 0x04, 0x02, 0xf8, 0x01, 0x00, 0x00, 0x00, 0x00, 0x00, 0x00,
  };
