#define filled_icon_width 12
#define filled_icon_height 12
static unsigned char filled_icon_bits[] = {
  0x18, 0x00, 0x3c, 0x00, 0x7e, 0x00, 0x7f, 0x00, 0xff, 0x00, 0xff, 0x07,
  0xfe, 0x0f, 0xfc, 0x0f, 0xf8, 0x07, 0xf8, 0x03, 0xf0, 0x03, 0xe0, 0x01,
  };
