#define movefig_icon_width 12
#define movefig_icon_height 12
static unsigned char movefig_icon_bits[] = {
  0x60, 0x00, 0xf0, 0x00, 0x60, 0x00, 0x60, 0x00, 0x62, 0x04, 0xff, 0x0f,
  0xff, 0x0f, 0x62, 0x04, 0x60, 0x00, 0x60, 0x00, 0xf0, 0x00, 0x60, 0x00,
  };
