#define move_icon_width 12
#define move_icon_height 12
static unsigned char move_icon_bits[] = {
  0x18, 0x00, 0x24, 0x06, 0xc2, 0x09, 0x01, 0x08, 0x41, 0x04, 0xc1, 0x04,
  0xfa, 0x09, 0xfa, 0x09, 0xc2, 0x04, 0x44, 0x02, 0x08, 0x02, 0xf0, 0x01,
  };
