#define outline_icon_width 12
#define outline_icon_height 12
static unsigned char outline_icon_bits[] = {
  0x18, 0x00, 0x24, 0x00, 0x42, 0x00, 0x41, 0x00, 0x81, 0x00, 0x01, 0x07,
  0x02, 0x08, 0x04, 0x08, 0x08, 0x04, 0x08, 0x02, 0x10, 0x02, 0xe0, 0x01,
  };
