#define polyline_icon_width 12
#define polyline_icon_height 12
static unsigned char polyline_icon_bits[] = {
  0x20, 0x00, 0x10, 0x00, 0x10, 0x00, 0x88, 0x00, 0xc8, 0x00, 0x34, 0x01,
  0x0c, 0x01, 0x02, 0x02, 0x00, 0x02, 0x00, 0x04, 0x00, 0x04, 0x00, 0x08,
  };
