#define text_icon_width 12
#define text_icon_height 12
static unsigned char text_icon_bits[] = {
  0x00, 0x00, 0x60, 0x00, 0x60, 0x00, 0xf0, 0x00, 0x90, 0x00, 0x98, 0x01,
  0x98, 0x01, 0x0c, 0x03, 0xfc, 0x03, 0x0c, 0x03, 0x06, 0x06, 0x06, 0x06,
  };
