#define vfg_icon_width 12
#define vfg_icon_height 12
static unsigned char vfg_icon_bits[] = {
  0xfe, 0x07, 0x02, 0x04, 0xfa, 0x04, 0x8a, 0x04, 0x8a, 0x04, 0xfa, 0x04,
  0x22, 0x04, 0x72, 0x04, 0x22, 0x04, 0xfa, 0x04, 0x8a, 0x04, 0xfe, 0x07,
  };
