#define noname_width 12
#define noname_height 12
static char noname_bits[] = {
 0xf0,0x00,0x9c,0x03,0x06,0x06,0x02,0x05,0x83,0x0c,0x61,0x08,0x61,0x08,0x83,
 0x0c,0x02,0x04,0x06,0x06,0x9c,0x03,0xf0,0x00};
