#define noname_width 12
#define noname_height 12
static char noname_bits[] = {
 0xff,0x0f,0xff,0x0f,0xf3,0x0c,0xf3,0x0c,0xff,0x0f,0xff,0x0f,0x3f,0x00,0x3f,
 0x00,0x33,0x02,0xb3,0x07,0x3f,0x02,0x3f,0x00};
